# 3ds Max Wavefront OBJ Exporter v0.97b - (c)2007 guruware
# File Created: 22.10.2018 18:45:49

#
# object Box001
#

v  -10.0000 0.0000 10.0000
v  -10.0000 0.0000 -10.0000
v  10.0000 0.0000 -10.0000
v  10.0000 0.0000 10.0000
v  0.0000 15.0000 10.0000
v  0.0000 15.0000 -10.0000
# 6 vertices

vn -0.7348 -0.3933 0.5526
vn -0.7348 -0.3933 -0.5526
vn 0.7348 -0.3933 -0.5526
vn 0.7348 -0.3933 0.5526
vn 0.0000 0.8289 0.5594
vn 0.0000 0.8289 -0.5594
# 6 vertex normals

vt 1.0000 0.0000 0.0000
vt 1.0000 1.0000 0.0000
vt 0.0000 1.0000 0.0000
vt 0.0000 0.0000 0.0000
# 4 texture coords

o Box001
g Box001
s 2
f 1/1/1 2/2/2 3/3/3 4/4/4 
s 8
f 1/4/1 4/1/4 5/3/5 
s 16
f 4/4/4 3/1/3 6/2/6 5/3/5 
s 32
f 3/4/3 2/1/2 6/3/6 
s 64
f 2/4/2 1/1/1 5/2/5 6/3/6 
# 3 polygons - 2 triangles

